<svg width="19" height="25" viewBox="0 0 19 25" fill="none" xmlns="http://www.w3.org/2000/svg">
<path d="M15.8682 13.2817C15.901 17.0651 18.9661 18.324 19 18.3401C18.974 18.4288 18.5102 20.1342 17.3852 21.8958C16.4127 23.4188 15.4032 24.9361 13.8131 24.9675C12.2508 24.9983 11.7483 23.9749 9.96202 23.9749C8.17624 23.9749 7.61805 24.9361 6.13902 24.9983C4.60417 25.0606 3.43538 23.3516 2.4548 21.8341C0.450898 18.7304 -1.08046 13.0635 0.975772 9.23824C1.99724 7.33859 3.8228 6.13574 5.80414 6.10489C7.3113 6.07411 8.73392 7.19124 9.65527 7.19124C10.576 7.19124 12.3048 5.84781 14.1222 6.04509C14.8829 6.07904 17.0187 6.37429 18.39 8.52489C18.2794 8.59829 15.8417 10.1187 15.8682 13.2817V13.2817ZM12.9319 3.99165C13.7468 2.93488 14.2952 1.46382 14.1456 0C12.971 0.0505726 11.5507 0.838582 10.7082 1.89472C9.95319 2.83008 9.29197 4.32705 9.4704 5.76185C10.7796 5.87039 12.117 5.04907 12.932 3.99165" fill="black"/>
</svg>
